<?xml version="1.0" standalone="no"?>
<!DOCTYPE svg PUBLIC "-//W3C//DTD SVG 20010904//EN"
 "http://www.w3.org/TR/2001/REC-SVG-20010904/DTD/svg10.dtd">
<svg version="1.0" xmlns="http://www.w3.org/2000/svg"
 width="2481.000000pt" height="3508.000000pt" viewBox="0 0 2481.000000 3508.000000"
 preserveAspectRatio="xMidYMid meet">

<g transform="translate(0.000000,3508.000000) scale(0.100000,-0.100000)"
fill="#000000" stroke="none">
<path d="M16998 22397 c-38 -22 -458 -529 -1797 -2167 -344 -421 -758 -927
-921 -1125 -162 -198 -313 -381 -334 -407 l-38 -48 226 0 c226 0 227 0 235 23
5 12 31 47 58 77 27 30 208 251 403 490 194 239 440 541 545 670 1057 1297
1583 1946 1707 2105 144 185 148 191 148 238 0 39 -7 58 -32 93 -17 24 -42 51
-54 59 -34 22 -102 19 -146 -8z"/>
<path d="M12395 22394 c-36 -18 -75 -54 -75 -67 0 -6 17 6 37 26 31 32 43 37
82 37 33 0 42 3 31 10 -21 14 -40 12 -75 -6z"/>
<path d="M12292 22240 c0 -19 2 -27 5 -17 2 9 2 25 0 35 -3 9 -5 1 -5 -18z"/>
<path d="M12350 22135 c24 -25 48 -45 52 -45 5 0 -12 20 -36 45 -25 25 -49 45
-53 45 -4 0 13 -20 37 -45z"/>
<path d="M12575 21910 c3 -5 8 -10 11 -10 2 0 4 5 4 10 0 6 -5 10 -11 10 -5 0
-7 -4 -4 -10z"/>
<path d="M18009 21693 c-29 -20 -227 -192 -439 -382 -875 -785 -1865 -1672
-2590 -2321 -159 -142 -278 -250 -355 -322 -19 -17 -12 -18 253 -18 222 0 272
2 272 14 0 18 20 38 190 192 1640 1488 2908 2645 2913 2659 24 60 -11 148 -75
190 -56 37 -103 34 -169 -12z"/>
<path d="M12572 21553 c-17 -30 -15 -37 4 -19 8 9 14 22 11 29 -2 7 -8 4 -15
-10z"/>
<path d="M12406 21389 c-40 -30 -42 -38 -4 -16 27 15 52 37 47 41 -2 2 -22
-10 -43 -25z"/>
<path d="M13499 21319 c-59 -43 -220 -208 -242 -250 l-18 -34 23 30 c13 16 37
42 53 58 162 155 223 211 240 218 15 6 16 8 4 8 -9 1 -36 -13 -60 -30z"/>
<path d="M12701 21244 c-52 -52 -91 -94 -87 -94 14 0 116 92 157 141 65 77 32
56 -70 -47z"/>
<path d="M11050 21269 c0 -5 5 -7 10 -4 6 3 10 8 10 11 0 2 -4 4 -10 4 -5 0
-10 -5 -10 -11z"/>
<path d="M12162 21197 c-57 -58 -53 -68 5 -12 25 25 44 47 42 50 -3 2 -24 -15
-47 -38z"/>
<path d="M10922 21147 c-29 -29 -52 -56 -52 -61 0 -4 25 17 56 49 31 31 54 58
52 60 -2 3 -28 -19 -56 -48z"/>
<path d="M10819 21013 c-13 -16 -12 -17 4 -4 9 7 17 15 17 17 0 8 -8 3 -21
-13z"/>
<path d="M13201 20979 c-23 -48 -27 -69 -9 -51 13 13 39 84 33 90 -2 2 -13
-15 -24 -39z"/>
<path d="M10785 20950 c-3 -5 -1 -10 4 -10 6 0 11 5 11 10 0 6 -2 10 -4 10 -3
0 -8 -4 -11 -10z"/>
<path d="M11952 20710 c0 -19 2 -27 5 -17 2 9 2 25 0 35 -3 9 -5 1 -5 -18z"/>
<path d="M12330 20496 c0 -4 7 -14 15 -22 8 -9 15 -11 15 -6 0 5 -7 15 -15 22
-8 7 -15 9 -15 6z"/>
<path d="M12410 20414 c0 -7 48 -54 56 -54 3 0 19 -9 35 -21 16 -11 29 -17 28
-12 0 9 -119 96 -119 87z"/>
<path d="M10843 20375 c8 -17 25 -39 37 -50 l23 -20 -14 25 c-8 13 -25 35 -37
50 l-24 25 15 -30z"/>
<path d="M13710 20330 c0 -5 5 -10 11 -10 5 0 7 5 4 10 -3 6 -8 10 -11 10 -2
0 -4 -4 -4 -10z"/>
<path d="M12550 20305 c7 -8 26 -21 44 -30 l31 -15 -35 30 c-37 31 -61 40 -40
15z"/>
<path d="M12100 20291 c0 -12 129 -141 142 -141 13 0 12 1 -67 78 -41 40 -75
69 -75 63z"/>
<path d="M10930 20271 c0 -12 102 -112 108 -106 2 2 -21 29 -52 59 -31 31 -56
52 -56 47z"/>
<path d="M12650 20236 c0 -11 110 -120 115 -114 3 2 -22 31 -55 63 -33 33 -60
55 -60 51z"/>
<path d="M12380 20045 c7 -8 17 -15 22 -15 6 0 5 7 -2 15 -7 8 -17 15 -22 15
-6 0 -5 -7 2 -15z"/>
<path d="M13580 20045 c7 -8 17 -15 22 -15 6 0 5 7 -2 15 -7 8 -17 15 -22 15
-6 0 -5 -7 2 -15z"/>
<path d="M11220 20015 c0 -2 10 -10 23 -16 20 -11 21 -11 8 4 -13 16 -31 23
-31 12z"/>
<path d="M12430 20014 c0 -8 43 -43 52 -44 5 0 -2 11 -14 25 -20 24 -38 32
-38 19z"/>
<path d="M13630 20011 c0 -5 7 -12 16 -15 24 -9 27 -7 10 9 -17 17 -26 19 -26
6z"/>
<path d="M12850 19990 c0 -5 5 -10 11 -10 5 0 7 5 4 10 -3 6 -8 10 -11 10 -2
0 -4 -4 -4 -10z"/>
<path d="M13758 19881 c29 -42 42 -48 20 -10 -15 27 -34 49 -42 49 -3 0 7 -18
22 -39z"/>
<path d="M12560 19887 c0 -8 7 -20 15 -27 12 -10 15 -10 15 3 0 8 -7 20 -15
27 -12 10 -15 10 -15 -3z"/>
<path d="M11385 19850 c3 -5 8 -10 11 -10 2 0 4 5 4 10 0 6 -5 10 -11 10 -5 0
-7 -4 -4 -10z"/>
<path d="M12590 19835 c0 -5 5 -17 10 -25 5 -8 10 -10 10 -5 0 6 -5 17 -10 25
-5 8 -10 11 -10 5z"/>
<path d="M11423 19690 c0 -41 2 -58 4 -37 2 20 2 54 0 75 -2 20 -4 3 -4 -38z"/>
<path d="M13791 19543 c-19 -40 -70 -102 -131 -158 -131 -118 -180 -173 -180
-202 0 -15 5 -35 10 -43 7 -11 10 -6 10 22 0 34 11 48 143 180 97 99 146 156
155 182 16 44 11 58 -7 19z"/>
<path d="M12690 19172 c-94 -96 -86 -103 14 -12 42 39 101 109 95 114 -2 2
-51 -44 -109 -102z"/>
<path d="M11119 19253 c-13 -16 -12 -17 4 -4 16 13 21 21 13 21 -2 0 -10 -8
-17 -17z"/>
<path d="M12330 19260 c-8 -5 -12 -12 -9 -15 4 -3 12 1 19 10 14 17 11 19 -10
5z"/>
<path d="M12297 19213 c-10 -9 -9 -91 1 -97 4 -2 8 20 8 50 -1 30 -1 54 -2 54
0 0 -4 -3 -7 -7z"/>
<path d="M13532 19071 c20 -26 48 -47 48 -37 0 7 -58 66 -65 66 -3 0 4 -13 17
-29z"/>
<path d="M8825 18630 c-27 -4 -58 -10 -68 -15 -30 -13 -48 -61 -58 -158 -14
-119 -5 -1103 10 -1207 6 -41 18 -127 27 -190 28 -201 124 -536 204 -715 5
-11 23 -54 40 -95 101 -240 260 -505 437 -734 100 -128 408 -440 533 -539 111
-89 347 -251 430 -295 36 -19 76 -43 90 -52 38 -26 283 -143 385 -183 124 -49
424 -142 515 -160 41 -8 125 -22 185 -31 61 -9 121 -18 135 -20 14 -2 -122 -4
-302 -5 -282 -1 -329 -3 -342 -17 -21 -21 -20 -57 2 -77 17 -16 122 -17 1303
-17 706 0 1289 4 1295 8 19 12 34 50 28 67 -12 30 -52 35 -267 36 -156 1 -195
4 -146 9 74 9 377 73 454 97 28 8 106 35 175 60 445 161 604 247 996 540 478
358 847 853 1082 1454 75 191 168 515 186 649 45 329 57 553 54 1024 l-3 454
-31 44 c-17 23 -44 50 -60 58 -26 13 -450 15 -3634 16 -1983 1 -3627 -2 -3655
-6z"/>
<path d="M9010 13180 c-129 -3 -236 -7 -237 -8 -74 -97 -74 -141 0 -232 l49
-60 2616 1 c2743 2 4657 11 4705 24 38 10 87 87 87 136 0 25 -11 52 -32 85
l-33 49 -150 6 c-189 8 -6686 7 -7005 -1z"/>
<path d="M14440 12175 l0 -95 -60 0 c-57 0 -60 -1 -60 -25 0 -22 4 -24 59 -27
l60 -3 -33 -101 c-18 -55 -49 -131 -69 -169 -28 -53 -34 -72 -26 -87 18 -34
40 -2 95 142 l33 85 1 -212 0 -213 25 0 25 0 0 210 c0 116 4 210 8 210 4 0 21
-24 37 -54 23 -42 33 -52 42 -44 21 17 16 31 -37 106 -33 48 -50 81 -50 102 0
30 0 30 55 30 52 0 55 1 55 25 0 24 -3 25 -56 25 l-55 0 3 95 3 95 -27 0 -28
0 0 -95z"/>
<path d="M14810 12248 c-1 -65 -5 -68 -101 -68 -82 0 -89 -2 -89 -20 0 -18 7
-20 85 -20 89 0 91 -1 79 -47 -6 -21 -12 -23 -70 -23 -57 0 -64 -2 -64 -20 0
-18 7 -20 55 -20 61 0 67 -8 40 -60 -15 -29 -18 -30 -85 -30 -63 0 -70 -2 -70
-20 0 -18 7 -20 60 -20 33 0 60 -2 60 -5 0 -18 -45 -88 -85 -133 -41 -45 -45
-54 -35 -73 12 -21 13 -20 56 22 l44 43 0 -142 0 -142 25 0 c16 0 25 6 25 15
0 12 19 15 110 15 91 0 110 -3 110 -15 0 -9 9 -15 25 -15 l25 0 0 145 0 145
34 -38 c33 -35 36 -36 52 -20 17 17 17 19 -13 50 -32 34 -93 126 -93 140 0 4
27 8 60 8 53 0 60 2 60 20 0 18 -7 20 -70 20 -65 0 -71 2 -80 24 -21 58 -19
61 43 64 49 3 57 6 57 22 0 19 -8 20 -116 20 -102 0 -115 2 -110 16 3 9 6 24
6 35 0 18 8 19 125 19 118 0 125 1 125 20 0 19 -7 20 -116 20 l-116 0 4 40 c2
27 -1 41 -10 45 -28 10 -42 5 -42 -17z m96 -258 c7 -19 10 -38 7 -42 -2 -5
-29 -8 -59 -8 -59 0 -62 4 -43 59 10 29 15 32 48 29 31 -3 37 -8 47 -38z m47
-125 c9 -20 17 -38 17 -40 0 -3 -54 -5 -119 -5 l-119 0 21 40 22 40 81 0 80 0
17 -35z m2 -135 l0 -45 -105 0 -105 0 -3 33 c-6 61 -3 63 110 60 l103 -3 0
-45z m3 -137 l-3 -48 -105 0 -105 0 -3 48 -3 47 111 0 111 0 -3 -47z"/>
<path d="M12652 12243 c-49 -24 -65 -69 -67 -187 -1 -56 0 -105 3 -109 2 -4 5
-49 7 -100 1 -51 3 -92 5 -92 6 0 7 -36 0 -40 -8 -5 -12 -105 -11 -235 0 -36
0 -112 -1 -170 -1 -58 -2 -314 -2 -570 -1 -450 0 -466 19 -500 16 -27 33 -39
74 -53 64 -21 102 -13 147 34 l29 30 0 234 c0 202 2 236 16 250 15 15 19 13
45 -32 16 -26 32 -56 36 -65 4 -10 12 -18 18 -18 5 0 10 -5 10 -11 0 -6 13
-28 28 -48 16 -20 36 -52 45 -71 22 -43 31 -59 85 -138 23 -35 42 -67 42 -71
0 -12 64 -68 99 -85 79 -41 181 29 181 124 0 34 -11 57 -63 133 -35 51 -66
101 -70 111 -7 18 -116 187 -127 196 -3 3 -19 31 -35 62 -17 32 -33 58 -37 58
-5 0 -8 6 -8 14 0 8 -6 21 -12 28 -7 7 -20 27 -28 43 -8 17 -22 42 -32 57 -25
37 -23 53 22 143 22 44 40 83 40 87 0 3 15 33 34 65 18 33 41 82 51 109 10 27
22 54 27 60 4 6 19 39 32 75 13 35 37 93 54 129 16 36 29 69 30 73 0 4 35 78
76 163 75 154 76 156 64 197 -20 67 -73 107 -141 107 -37 0 -95 -32 -104 -58
-4 -9 -9 -19 -13 -22 -7 -6 -100 -193 -119 -240 -8 -19 -22 -54 -33 -78 -10
-23 -16 -47 -13 -51 3 -5 2 -11 -3 -13 -11 -4 -52 -103 -52 -126 0 -11 -7 -22
-15 -26 -8 -3 -15 -13 -15 -23 0 -10 -9 -33 -21 -52 -11 -18 -18 -36 -15 -38
3 -3 -5 -20 -18 -37 -13 -17 -26 -40 -27 -50 -2 -11 -9 -21 -16 -23 -9 -3 -12
75 -12 324 0 468 -1 477 -60 517 -43 30 -99 34 -149 9z"/>
<path d="M10008 12229 c-70 -37 -72 -45 -64 -384 4 -165 9 -417 11 -560 11
-685 8 -711 -72 -791 -35 -36 -96 -51 -151 -39 -47 10 -118 62 -135 98 -24 49
-40 90 -42 107 -2 16 -15 90 -21 125 -2 11 -4 310 -4 665 -1 411 -5 660 -11
685 -13 47 -32 71 -73 90 -33 15 -96 18 -96 4 0 -5 -6 -6 -13 -3 -14 5 -48
-23 -72 -60 -14 -21 -15 -129 -4 -371 0 -5 -1 -230 -2 -500 -2 -269 0 -508 3
-530 4 -22 10 -62 13 -90 4 -27 11 -58 16 -67 5 -9 9 -27 9 -40 0 -44 75 -178
135 -239 70 -73 197 -143 249 -138 12 1 29 -2 39 -6 32 -14 150 2 220 30 83
33 170 110 211 186 25 46 33 68 51 142 2 9 6 21 9 25 9 15 20 170 20 292 0
274 -4 370 -17 370 -9 0 -9 2 -1 8 15 9 16 384 2 393 -6 4 -6 14 1 28 6 11 9
31 7 43 -3 13 -8 102 -11 198 -4 96 -8 196 -9 221 -2 58 -26 94 -72 114 -48
20 -81 18 -126 -6z"/>
<path d="M13785 12223 c-45 -10 -87 -36 -106 -66 -19 -31 -20 -43 -14 -267 4
-129 9 -264 11 -300 2 -36 4 -147 5 -247 0 -101 4 -185 9 -188 5 -3 7 -38 3
-78 -7 -87 -7 -141 2 -412 3 -115 6 -254 5 -307 -1 -108 10 -137 61 -164 16
-8 29 -13 29 -10 0 2 15 1 33 -4 63 -14 130 38 146 111 4 19 6 81 5 139 -2 58
-5 247 -8 420 -11 630 -14 727 -21 825 -4 55 -8 177 -9 270 -2 204 -12 235
-83 266 -25 10 -45 18 -46 18 -1 -1 -11 -3 -22 -6z"/>
<path d="M17745 12223 c-45 -10 -87 -36 -106 -66 -20 -31 -20 -43 -14 -267 3
-129 8 -269 11 -310 3 -41 5 -153 5 -247 0 -95 4 -175 9 -178 5 -3 6 -38 3
-78 -7 -86 -7 -138 1 -412 4 -115 7 -255 6 -310 -1 -96 0 -101 27 -132 25 -30
45 -38 109 -47 29 -4 83 24 106 55 28 37 34 80 32 204 -2 61 -5 252 -8 425 -4
173 -8 405 -10 515 -2 110 -7 250 -11 310 -5 61 -9 182 -9 270 -2 193 -12 226
-83 256 -25 10 -45 18 -46 18 -1 -1 -11 -3 -22 -6z"/>
<path d="M16895 12212 c-41 -7 -74 -25 -99 -53 -14 -16 -30 -29 -35 -29 -10 0
-24 -36 -40 -100 -12 -48 -17 -243 -12 -450 2 -69 -1 -156 -5 -195 -5 -38 -10
-254 -12 -480 -1 -225 -3 -444 -4 -485 -1 -91 2 -107 29 -153 23 -38 73 -69
133 -82 86 -19 450 3 475 29 9 9 20 16 24 16 4 0 15 18 25 40 18 41 17 106 -1
119 -5 3 -12 14 -16 23 -13 36 -74 51 -192 48 -60 -2 -130 -4 -154 -4 l-45 -1
-1 292 -2 292 96 -5 c89 -5 98 -4 130 18 19 12 37 30 41 38 28 58 32 72 26
102 -9 47 -69 107 -110 110 -60 4 -91 5 -131 7 l-40 1 2 292 c2 161 5 303 8
316 5 22 9 23 93 21 48 -2 128 -2 178 -1 82 2 94 5 127 30 20 15 41 40 47 56
13 37 13 93 -1 101 -5 4 -14 18 -19 30 -20 53 -55 60 -285 57 -49 0 -117 0
-150 2 -33 1 -69 0 -80 -2z"/>
<path d="M7106 12195 c-21 -7 -43 -20 -48 -27 -48 -72 -51 -129 -9 -176 42
-46 71 -54 205 -58 103 -3 123 -6 140 -23 14 -15 17 -23 9 -33 -11 -13 -15
-341 -17 -1240 l-1 -378 23 -15 c12 -9 22 -23 22 -31 0 -8 16 -22 37 -30 57
-24 100 -11 164 51 10 9 19 31 22 48 3 18 6 307 7 642 2 549 5 925 9 980 1 19
8 20 133 20 178 0 223 24 234 123 5 44 2 54 -18 74 -12 12 -22 27 -21 33 6 26
-55 38 -207 41 -85 1 -265 5 -400 8 -195 4 -253 2 -284 -9z"/>
<path d="M8555 12201 c-16 -4 -41 -14 -55 -21 -14 -8 -27 -15 -30 -16 -48 -11
-138 -104 -167 -171 -38 -90 -47 -128 -50 -228 -2 -55 -5 -143 -6 -195 -3 -56
1 -114 9 -143 7 -26 13 -50 13 -52 23 -91 134 -196 306 -289 11 -6 50 -31 88
-56 55 -37 73 -55 95 -100 26 -52 27 -62 27 -200 0 -129 -2 -149 -22 -185 -35
-66 -60 -83 -134 -91 -61 -6 -68 -5 -88 17 -34 37 -51 86 -51 151 0 107 -39
161 -119 164 -63 3 -111 -21 -133 -66 -35 -68 -18 -234 34 -350 35 -77 152
-170 213 -170 13 0 25 -4 27 -10 2 -5 39 -10 83 -12 97 -3 215 30 267 74 18
15 38 28 44 28 19 0 71 67 100 130 45 96 56 145 59 275 5 181 -20 309 -76 392
-16 23 -29 45 -29 49 0 28 -164 158 -248 197 -26 12 -61 32 -76 45 -16 12 -37
22 -46 22 -10 0 -20 8 -23 18 -4 9 -16 29 -28 43 -23 29 -23 30 -18 237 3 135
13 175 57 219 30 31 38 34 77 29 93 -10 121 -41 131 -141 7 -71 24 -113 59
-145 37 -35 127 -35 170 -2 39 31 57 77 51 127 -14 109 -26 168 -39 188 -8 12
-17 34 -20 48 -10 38 -80 114 -135 144 -83 47 -227 67 -317 46z"/>
<path d="M10524 12195 c-3 -8 -14 -15 -23 -15 -17 0 -31 -21 -45 -64 -4 -11
-9 -201 -12 -423 -3 -222 -7 -418 -10 -436 -2 -17 -6 -240 -9 -495 -4 -450 -4
-464 16 -502 27 -51 78 -77 147 -75 28 1 52 -2 52 -7 0 -4 17 -6 38 -3 20 3
84 8 142 10 58 2 119 6 137 9 91 16 208 100 248 177 38 76 46 122 51 324 6
258 -3 310 -83 448 -10 17 -8 25 6 46 24 34 61 118 69 156 3 17 6 141 6 276
-1 236 -12 361 -35 375 -5 3 -9 13 -9 23 0 10 -9 26 -20 36 -11 10 -20 23 -20
30 0 14 -50 63 -50 49 0 -5 -5 -1 -10 8 -6 9 -36 27 -68 39 -52 21 -76 23
-285 27 -198 3 -228 1 -233 -13z m417 -276 c37 -19 41 -46 43 -283 1 -202 -1
-235 -16 -257 -26 -41 -73 -57 -170 -58 l-87 -2 4 272 c3 149 5 286 5 304 0
27 4 34 23 37 38 7 179 -2 198 -13z m-33 -909 c68 -31 75 -58 74 -285 -2 -215
-7 -229 -78 -253 -45 -16 -193 -21 -201 -8 -4 5 -5 117 -5 250 1 133 2 258 2
279 l0 37 83 0 c60 0 94 -6 125 -20z"/>
<path d="M15566 12196 c-21 -8 -43 -21 -48 -28 -48 -72 -51 -129 -9 -176 43
-46 72 -55 205 -58 104 -3 122 -6 139 -23 15 -15 18 -23 10 -33 -11 -13 -12
-52 -16 -1105 -2 -502 -2 -512 18 -527 11 -8 20 -20 20 -28 0 -7 17 -21 38
-32 58 -28 102 -15 168 49 10 9 19 31 22 48 3 18 6 273 7 567 1 452 6 951 9
1051 l1 27 108 -5 c178 -8 248 25 258 124 5 45 2 55 -18 75 -12 12 -22 27 -21
33 2 6 -14 18 -35 27 -31 13 -79 16 -277 17 -132 0 -307 3 -390 6 -117 4 -159
2 -189 -9z"/>
<path d="M11819 12170 c-33 -17 -39 -28 -59 -92 -12 -39 -23 -81 -25 -93 -1
-11 -5 -27 -8 -35 -3 -8 -13 -53 -22 -100 -8 -47 -20 -107 -25 -135 -11 -55
-15 -78 -31 -180 -6 -38 -17 -106 -25 -150 -7 -44 -16 -96 -19 -115 -3 -19 -9
-57 -14 -85 -4 -27 -16 -95 -25 -150 -9 -55 -21 -122 -26 -150 -5 -27 -12 -75
-16 -105 -3 -30 -9 -66 -14 -80 -5 -14 -8 -32 -9 -40 0 -8 -7 -53 -16 -100 -9
-47 -18 -103 -21 -125 -2 -22 -9 -60 -15 -85 -28 -120 77 -204 193 -156 56 24
64 42 94 214 l18 102 31 1 c16 1 46 3 65 5 107 8 195 4 206 -10 6 -9 26 -70
44 -137 40 -148 68 -187 140 -192 58 -5 110 17 138 57 28 41 28 71 -4 176 -14
47 -30 101 -34 120 -4 19 -15 62 -25 95 -19 69 -55 210 -60 240 -2 11 -11 54
-20 95 -8 41 -17 89 -20 105 -3 17 -8 41 -11 55 -4 14 -8 36 -10 50 -1 14 -5
36 -8 50 -3 14 -8 39 -11 55 -13 78 -65 364 -71 393 -3 17 -11 32 -15 32 -5 0
-7 11 -3 24 3 14 -2 60 -11 103 -16 77 -32 161 -41 218 -11 71 -36 117 -70
131 -46 19 -102 17 -145 -6z m88 -920 c4 -8 5 -19 4 -24 -1 -5 1 -16 4 -25 4
-9 8 -39 10 -68 2 -29 7 -58 11 -65 5 -7 9 -19 9 -28 4 -40 18 -121 32 -173 8
-32 13 -60 11 -62 -8 -7 -169 -20 -179 -14 -6 3 -8 15 -5 26 5 17 59 324 73
413 2 19 7 42 10 50 5 13 6 13 10 0 3 -8 7 -22 10 -30z"/>
<path d="M14710 10940 l0 -40 -180 0 -180 0 0 -25 0 -25 385 0 385 0 0 25 0
25 -181 0 -182 0 6 40 c5 39 4 40 -24 40 -27 0 -29 -3 -29 -40z"/>
<path d="M14470 10705 l0 -85 270 0 270 0 0 85 0 85 -270 0 -270 0 0 -85z
m480 0 l0 -45 -215 0 -215 0 0 45 0 45 215 0 215 0 0 -45z"/>
<path d="M14360 10475 c0 -84 0 -85 25 -85 23 0 24 4 27 63 l3 62 323 3 322 2
0 -65 c0 -63 1 -65 25 -65 25 0 25 1 25 85 l0 85 -375 0 -375 0 0 -85z"/>
<path d="M14470 10420 c0 -19 7 -20 120 -20 l120 0 0 -90 0 -90 -85 0 c-83 0
-84 0 -76 -22 7 -20 16 -23 72 -26 82 -4 135 11 143 41 3 12 6 59 6 105 l0 82
120 0 c113 0 120 1 120 20 0 20 -7 20 -270 20 -263 0 -270 0 -270 -20z"/>
<path d="M9760 9555 c0 -148 1 -155 20 -155 18 0 20 7 20 85 0 82 1 86 26 97
46 21 59 3 62 -96 3 -78 5 -86 22 -86 18 0 20 7 20 90 0 78 -3 93 -21 111 -21
21 -50 22 -91 4 -16 -6 -18 -1 -18 49 0 49 -2 56 -20 56 -19 0 -20 -7 -20
-155z"/>
<path d="M10890 9555 c0 -148 1 -155 20 -155 19 0 20 7 20 155 0 148 -1 155
-20 155 -19 0 -20 -7 -20 -155z"/>
<path d="M12366 9688 c-9 -12 -16 -33 -16 -45 0 -14 -6 -23 -15 -23 -8 0 -15
-7 -15 -15 0 -8 7 -15 15 -15 12 0 15 -17 15 -95 0 -88 1 -95 20 -95 19 0 20
7 20 95 0 95 0 95 25 95 16 0 25 6 25 15 0 9 -10 15 -26 15 -22 0 -25 4 -22
28 2 22 8 28 36 30 49 5 43 32 -7 32 -30 0 -44 -6 -55 -22z"/>
<path d="M14490 9555 c0 -148 1 -155 20 -155 11 0 20 4 20 10 0 6 10 6 27 -1
14 -5 40 -7 56 -3 76 16 75 192 -1 209 -17 3 -40 2 -51 -4 -30 -17 -31 -15
-31 44 0 48 -2 55 -20 55 -19 0 -20 -7 -20 -155z m124 13 c32 -45 10 -138 -31
-138 -32 0 -53 31 -53 78 0 73 50 109 84 60z"/>
<path d="M15280 9555 c0 -148 1 -155 20 -155 19 0 20 7 20 155 0 148 -1 155
-20 155 -19 0 -20 -7 -20 -155z"/>
<path d="M9530 9680 c0 -17 7 -20 40 -20 l40 0 0 -130 c0 -123 1 -130 20 -130
19 0 20 7 20 129 l0 130 37 3 c27 2 39 8 41 21 3 15 -7 17 -97 17 -94 0 -101
-1 -101 -20z"/>
<path d="M12660 9581 c0 -135 -8 -154 -63 -149 -43 4 -45 -18 -2 -26 49 -10
87 11 97 52 5 18 7 78 6 135 -3 88 -5 102 -20 105 -16 3 -18 -8 -18 -117z"/>
<path d="M13750 9680 c0 -13 7 -20 20 -20 13 0 20 7 20 20 0 13 -7 20 -20 20
-13 0 -20 -7 -20 -20z"/>
<path d="M11110 9640 c0 -13 -7 -20 -20 -20 -11 0 -20 -7 -20 -15 0 -8 9 -15
20 -15 18 0 20 -7 20 -73 0 -86 12 -108 59 -110 43 -2 52 18 11 26 l-30 7 0
75 c0 73 1 75 25 75 16 0 25 6 25 15 0 9 -9 15 -25 15 -18 0 -25 5 -25 20 0
13 -7 20 -20 20 -13 0 -20 -7 -20 -20z"/>
<path d="M11670 9640 c0 -13 -7 -20 -20 -20 -11 0 -20 -7 -20 -15 0 -8 9 -15
20 -15 18 0 20 -7 20 -73 0 -86 12 -108 59 -110 43 -2 52 18 11 26 l-30 7 0
75 c0 73 1 75 25 75 16 0 25 6 25 15 0 9 -9 15 -25 15 -18 0 -25 5 -25 20 0
13 -7 20 -20 20 -13 0 -20 -7 -20 -20z"/>
<path d="M10030 9608 c-49 -26 -64 -96 -32 -157 20 -40 57 -56 108 -47 51 10
47 38 -5 30 -31 -5 -43 -2 -60 15 -38 38 -28 50 47 53 l67 3 -1 38 c-1 21 -8
45 -16 53 -21 21 -79 27 -108 12z m78 -30 c7 -7 12 -20 12 -30 0 -15 -9 -18
-50 -18 -54 0 -58 4 -34 38 17 24 53 29 72 10z"/>
<path d="M10300 9510 c0 -103 1 -110 20 -110 18 0 20 7 20 79 0 85 15 117 51
108 10 -3 23 1 29 8 18 22 -26 30 -55 11 -22 -15 -25 -15 -25 -1 0 8 -9 15
-20 15 -19 0 -20 -7 -20 -110z"/>
<path d="M10500 9608 c-49 -26 -64 -96 -32 -157 20 -40 57 -56 108 -47 51 10
47 38 -5 30 -31 -5 -43 -2 -60 15 -38 38 -28 50 47 53 l67 3 -1 38 c-1 21 -8
45 -16 53 -21 21 -79 27 -108 12z m78 -30 c7 -7 12 -20 12 -30 0 -15 -9 -18
-50 -18 -54 0 -58 4 -34 38 17 24 53 29 72 10z"/>
<path d="M10708 9613 c-10 -2 -18 -11 -18 -19 0 -12 8 -13 34 -9 41 8 76 -8
76 -35 0 -16 -7 -20 -34 -20 -52 0 -85 -16 -92 -45 -15 -62 42 -104 98 -72 25
14 30 15 34 2 4 -8 12 -15 20 -15 11 0 14 19 14 85 0 78 -2 88 -25 110 -23 24
-61 30 -107 18z m92 -131 c0 -45 -80 -71 -88 -29 -7 35 6 47 48 47 32 0 40 -4
40 -18z"/>
<path d="M11278 9613 c-10 -2 -18 -11 -18 -19 0 -12 8 -13 34 -9 41 8 76 -8
76 -35 0 -16 -7 -20 -34 -20 -52 0 -85 -16 -92 -45 -15 -62 42 -104 98 -72 25
14 30 15 34 2 4 -8 12 -15 20 -15 11 0 14 19 14 85 0 78 -2 88 -25 110 -23 24
-61 30 -107 18z m92 -131 c0 -45 -80 -71 -88 -29 -7 35 6 47 48 47 32 0 40 -4
40 -18z"/>
<path d="M11475 9595 c-41 -40 -27 -78 36 -97 46 -13 58 -30 38 -54 -8 -10
-26 -14 -52 -12 -58 4 -60 -19 -3 -27 51 -8 90 9 101 44 10 31 -10 56 -60 75
-31 12 -45 23 -45 36 0 22 31 34 65 26 15 -4 25 -1 28 8 4 9 -3 16 -16 20 -42
11 -68 6 -92 -19z"/>
<path d="M11850 9608 c-49 -26 -64 -96 -32 -157 20 -40 57 -56 108 -47 51 10
47 38 -5 30 -31 -5 -43 -2 -60 15 -38 38 -28 50 47 53 l67 3 -1 38 c-1 21 -8
45 -16 53 -21 21 -79 27 -108 12z m78 -30 c7 -7 12 -20 12 -30 0 -15 -9 -18
-50 -18 -54 0 -58 4 -34 38 17 24 53 29 72 10z"/>
<path d="M12143 9596 c-25 -21 -28 -31 -28 -86 0 -55 3 -65 28 -86 60 -51 135
-15 144 69 7 57 -10 100 -43 116 -39 17 -70 13 -101 -13z m91 -22 c10 -10 16
-33 16 -64 0 -74 -49 -108 -84 -58 -47 67 14 176 68 122z"/>
<path d="M12808 9613 c-16 -2 -28 -11 -28 -19 0 -11 9 -13 40 -8 47 8 70 -7
70 -43 0 -20 -4 -23 -20 -18 -35 11 -91 -6 -103 -32 -27 -59 33 -109 94 -79
39 20 39 20 39 1 0 -8 7 -15 16 -15 14 0 15 13 12 90 -2 63 -8 94 -18 104 -17
18 -62 26 -102 19z m71 -112 c22 -14 5 -60 -24 -67 -36 -9 -55 2 -55 30 0 37
45 58 79 37z"/>
<path d="M12984 9607 c-2 -7 -3 -78 -2 -157 3 -129 5 -145 21 -148 15 -3 17 5
17 63 l0 66 22 -15 c31 -22 52 -20 84 7 24 21 27 31 27 87 0 56 -3 66 -27 87
-32 27 -53 29 -84 7 -20 -14 -22 -14 -22 0 0 19 -29 21 -36 3z m120 -33 c10
-10 16 -33 16 -64 0 -52 -18 -80 -50 -80 -32 0 -50 28 -50 80 0 52 18 80 50
80 10 0 26 -7 34 -16z"/>
<path d="M13248 9613 c-16 -2 -28 -11 -28 -19 0 -11 9 -13 40 -8 47 8 70 -7
70 -43 0 -20 -4 -23 -20 -18 -35 11 -91 -6 -103 -32 -27 -59 33 -109 94 -79
39 20 39 20 39 1 0 -8 7 -15 16 -15 14 0 15 13 12 90 -2 63 -8 94 -18 104 -17
18 -62 26 -102 19z m71 -112 c22 -14 5 -60 -24 -67 -36 -9 -55 2 -55 30 0 37
45 58 79 37z"/>
<path d="M13434 9607 c-3 -8 -3 -56 -2 -108 3 -80 6 -94 21 -97 15 -3 17 6 17
82 0 83 1 87 26 98 46 21 59 3 62 -96 2 -76 5 -87 20 -84 14 3 18 17 20 82 4
112 -31 156 -97 123 -25 -13 -31 -13 -35 -1 -7 18 -25 18 -32 1z"/>
<path d="M13750 9510 c0 -103 1 -110 20 -110 19 0 20 7 20 110 0 103 -1 110
-20 110 -19 0 -20 -7 -20 -110z"/>
<path d="M13860 9510 c0 -103 1 -110 20 -110 18 0 20 7 20 85 0 82 1 86 26 97
46 21 59 3 62 -96 3 -78 5 -86 22 -86 18 0 20 7 20 90 0 77 -3 93 -20 110 -23
23 -51 25 -83 9 -16 -9 -22 -9 -25 0 -2 6 -12 11 -23 11 -18 0 -19 -8 -19
-110z"/>
<path d="M14208 9613 c-10 -2 -18 -11 -18 -19 0 -12 8 -13 34 -9 41 8 76 -8
76 -35 0 -16 -7 -20 -34 -20 -52 0 -85 -16 -92 -45 -15 -62 42 -104 98 -72 25
14 30 15 34 2 4 -8 12 -15 20 -15 11 0 14 19 14 85 0 78 -2 88 -25 110 -23 24
-61 30 -107 18z m92 -131 c0 -45 -80 -71 -88 -29 -7 35 6 47 48 47 32 0 40 -4
40 -18z"/>
<path d="M14743 9596 c-25 -21 -28 -31 -28 -86 0 -55 3 -65 28 -86 60 -51 135
-15 144 69 7 57 -10 100 -43 116 -39 17 -70 13 -101 -13z m91 -22 c10 -10 16
-33 16 -64 0 -74 -49 -108 -84 -58 -47 67 14 176 68 122z"/>
<path d="M14931 9603 c0 -10 12 -58 27 -108 22 -74 31 -91 49 -93 22 -3 29 13
60 138 9 33 10 32 32 -53 21 -75 27 -87 46 -87 18 0 25 13 49 98 16 53 31 103
34 111 3 8 -1 12 -13 10 -13 -3 -25 -27 -41 -83 -13 -44 -25 -81 -27 -83 -2
-2 -14 35 -27 82 -18 67 -27 85 -41 85 -14 0 -23 -17 -39 -72 -12 -40 -24 -80
-27 -88 -3 -8 -17 24 -30 73 -16 54 -31 87 -39 87 -8 0 -14 -8 -13 -17z"/>
<path d="M15380 9420 c0 -13 7 -20 20 -20 13 0 20 7 20 20 0 13 -7 20 -20 20
-13 0 -20 -7 -20 -20z"/>
<path d="M9223 8691 c-398 -6 -412 -7 -440 -27 -31 -23 -62 -92 -62 -141 -1
-25 11 -44 55 -92 l56 -61 1612 0 c886 0 2526 3 3645 7 l2035 6 37 34 c36 33
69 103 69 147 0 12 -15 38 -33 59 -25 29 -45 41 -87 51 -46 12 -600 15 -3265
19 -1765 2 -3395 1 -3622 -2z"/>
</g>
</svg>
